<svg width="37" height="37" viewBox="0 0 37 37" fill="none" xmlns="http://www.w3.org/2000/svg">
<g id="24 / basic / circle-x">
<path id="icon" fill-rule="evenodd" clip-rule="evenodd" d="M18.5 35.4583C9.13413 35.4583 1.54163 27.8658 1.54163 18.5C1.54163 9.13418 9.13413 1.54167 18.5 1.54167C27.8658 1.54167 35.4583 9.13418 35.4583 18.5C35.4583 27.8658 27.8658 35.4583 18.5 35.4583ZM18.5 32.375C26.1629 32.375 32.375 26.163 32.375 18.5C32.375 10.8371 26.1629 4.62501 18.5 4.62501C10.837 4.62501 4.62496 10.8371 4.62496 18.5C4.62496 26.163 10.837 32.375 18.5 32.375ZM13.4234 25.7568L18.5 20.6803L23.5765 25.7568L25.7567 23.5765L20.6802 18.5L25.7567 13.4235L23.5765 11.2432L18.5 16.3198L13.4234 11.2432L11.2432 13.4235L16.3197 18.5L11.2432 23.5765L13.4234 25.7568Z" fill="white"/>
</g>
</svg>
