<svg width="34" height="34" viewBox="0 0 34 34" fill="none" xmlns="http://www.w3.org/2000/svg">
<path fill-rule="evenodd" clip-rule="evenodd" d="M12.75 1.41667H21.25C22.8148 1.41667 24.0834 2.6852 24.0834 4.25001V5.66667H28.3334C29.8982 5.66667 31.1667 6.9352 31.1667 8.5V11.3333C31.1667 12.8981 29.8982 14.1667 28.3334 14.1667H28.2199L26.9167 29.75C26.9167 31.3148 25.6482 32.5833 24.0834 32.5833H9.91671C8.3519 32.5833 7.08337 31.3148 7.08827 29.8677L5.77985 14.1667H5.66671C4.1019 14.1667 2.83337 12.8981 2.83337 11.3333V8.5C2.83337 6.9352 4.1019 5.66667 5.66671 5.66667H9.91671V4.25001C9.91671 2.6852 11.1852 1.41667 12.75 1.41667ZM5.66671 8.50001L9.91671 8.50001H24.0834L28.3334 8.50001V11.3333H5.66671V8.50001ZM8.62257 14.1667H25.3771L24.0883 29.6324L24.0834 29.75H9.91671L8.62257 14.1667ZM21.25 4.25001V5.66667H12.75V4.25001H21.25Z" fill="#211A1D"/>
</svg>
